{"title":"Suske en Wiske-De Texas Rakkers-DVDRip-2009","uid":5108402,"size":1464073535,"categoryP":"video","categoryS":"movies","magnet":"?xt=urn:btih:29894d336589372b52d3930c0c7bde8b40f2da41&amp;dn=Suske+en+Wiske-De+Texas+Rakkers-DVDRip-2009&amp;tr=udp%3A%2F%2Ftracker.openbittorrent.com%3A80&amp;tr=udp%3A%2F%2Fopen.demonii.com%3A1337&amp;tr=udp%3A%2F%2Ftracker.coppersurfer.tk%3A6969&amp;tr=udp%3A%2F%2Fexodus.desync.com%3A6969","seeders":1,"leechers":0,"uploader":"FatFreddy31","files":-1,"time":1254528967,"description":" &lt;a href=&quot;http://www.imdb.com/title/tt1433915/&quot; rel=&quot;nofollow&quot; target=&quot;_NEW&quot;&gt;http://www.imdb.com/title/tt1433915/&lt;/a&gt;\n &lt;a href=&quot;\nhttp://www.moviemeter.nl/film/49330&quot; rel=&quot;nofollow&quot; target=&quot;_NEW&quot;&gt;\nhttp://www.moviemeter.nl/film/49330&lt;/a&gt;\n\nBelgiÃƒÂ« / Nederland\nAnimatie\n80 minuten\n\nGeregisseerd door Wim Bien en Mark Mertens.\nMet de stemmen van Staf Coppens, Evelien Verhegge en Lucas van den Eijnde.\n\nDark City, Texas. Een vreselijke bandiet, genaamd Jim Parasijt runt een illegale whiskeystokerij. Parasijt wil de grootste worden en heeft daarom een magisch poeder ontwikkeld dat iedereen kan verkleinen. De lokale Texas Rangers, onder leiding van de dappere Ranger Tom, proberen Parasijt te stoppen, maar worden in de val gelokt. Tom en zijn Rangers worden verkleind en in whiskeyflessen gestopt. In een ontsnappingspoging komt de fles waarin Ranger Tom zit in een krat terecht dat wordt verscheept naar BelgiÃƒÂ« en komt zo in handen van Lambik, die een krat whiskey aangesmeerd krijgt van Theofiel Boomerang. Suske, Wiske, Tante Sidonia, Lambik, Jerom en professor Barabas krijgen het verhaal te horen en besluiten Ranger Tom te helpen. Barabas zal proberen Ranger Tom weer te vergroten en de rest reist af naar Dark City om daar Jim Parasijt tegen te houden.\n\nCover bijgesloten.\n\nInfo:\n\nGeneral\nComplete name                    : Suske en Wiske-De Texas Rakkers-DVDRip-2009.avi\nFormat                           : AVI\nFormat/Info                      : Audio Video Interleave\nFile size                        : 1.36 GiB\nDuration                         : 1h 28mn\nOverall bit rate                 : 2 200 Kbps\nWriting application              : VirtualDubMod 1.5.4.1 (build 2178/release)\nWriting library                  : VirtualDubMod build 2178/release\n\nVideo\nFormat                           : MPEG-4 Visual\nFormat profile                   : Simple@L3\nFormat settings, BVOP            : No\nFormat settings, QPel            : No\nFormat settings, GMC             : No warppoints\nFormat settings, Matrix          : Default\nCodec ID                         : XVID\nCodec ID/Hint                    : XviD\nDuration                         : 1h 28mn\nBit rate                         : 1 743 Kbps\nWidth                            : 704 pixels\nHeight                           : 400 pixels\nDisplay aspect ratio             : 16/9\nFrame rate                       : 25.000 fps\nResolution                       : 24 bits\nColorimetry                      : 4:2:0\nScan type                        : Progressive\nBits/(Pixel*Frame)               : 0.248\nStream size                      : 1.08 GiB (79%)\nWriting library                  : XviD 1.1.2 (UTC 2006-11-01)\n\nAudio\nFormat                           : AC-3\nFormat/Info                      : Audio Coding 3\nCodec ID                         : 2000\nDuration                         : 1h 28mn\nBit rate mode                    : Constant\nBit rate                         : 448 Kbps\nChannel(s)                       : 6 channels\nChannel positions                : Front: L C R, Surround: L R, LFE\nSampling rate                    : 48.0 KHz\nStream size                      : 283 MiB (20%)\nAlignment                        : Split accross interleaves\nInterleave, duration             : 40 ms (1.00 video frame)\nInterleave, preload duration     : 500 ms\n\nVeel plezier....","torrent":{"xt":"urn:btih:29894d336589372b52d3930c0c7bde8b40f2da41","amp;dn":"Suske+en+Wiske-De+Texas+Rakkers-DVDRip-2009","amp;tr":["udp%3A%2F%2Ftracker.openbittorrent.com%3A80","udp%3A%2F%2Fopen.demonii.com%3A1337","udp%3A%2F%2Ftracker.coppersurfer.tk%3A6969","udp%3A%2F%2Fexodus.desync.com%3A6969"],"infoHash":"29894d336589372b52d3930c0c7bde8b40f2da41","infoHashBuffer":{"type":"Buffer","data":[41,137,77,51,101,137,55,43,82,211,147,12,12,123,222,139,64,242,218,65]},"announce":[],"urlList":[]}}